<svg aria-roledescription="er" role="graphics-document document" viewBox="0 0 611.8314208984375 517" style="max-width: 611.8314208984375px;" xmlns:xlink="http://www.w3.org/1999/xlink" xmlns="http://www.w3.org/2000/svg" width="100%" id="mermaid-1737337011116"><style>#mermaid-1737337011116{font-family:"trebuchet ms",verdana,arial,sans-serif;font-size:16px;fill:#333;}#mermaid-1737337011116 .error-icon{fill:#552222;}#mermaid-1737337011116 .error-text{fill:#552222;stroke:#552222;}#mermaid-1737337011116 .edge-thickness-normal{stroke-width:1px;}#mermaid-1737337011116 .edge-thickness-thick{stroke-width:3.5px;}#mermaid-1737337011116 .edge-pattern-solid{stroke-dasharray:0;}#mermaid-1737337011116 .edge-thickness-invisible{stroke-width:0;fill:none;}#mermaid-1737337011116 .edge-pattern-dashed{stroke-dasharray:3;}#mermaid-1737337011116 .edge-pattern-dotted{stroke-dasharray:2;}#mermaid-1737337011116 .marker{fill:#333333;stroke:#333333;}#mermaid-1737337011116 .marker.cross{stroke:#333333;}#mermaid-1737337011116 svg{font-family:"trebuchet ms",verdana,arial,sans-serif;font-size:16px;}#mermaid-1737337011116 p{margin:0;}#mermaid-1737337011116 .entityBox{fill:#ECECFF;stroke:#9370DB;}#mermaid-1737337011116 .attributeBoxOdd{fill:#ffffff;stroke:#9370DB;}#mermaid-1737337011116 .attributeBoxEven{fill:#f2f2f2;stroke:#9370DB;}#mermaid-1737337011116 .relationshipLabelBox{fill:hsl(80, 100%, 96.2745098039%);opacity:0.7;background-color:hsl(80, 100%, 96.2745098039%);}#mermaid-1737337011116 .relationshipLabelBox rect{opacity:0.5;}#mermaid-1737337011116 .relationshipLine{stroke:#333333;}#mermaid-1737337011116 .entityTitleText{text-anchor:middle;font-size:18px;fill:#333;}#mermaid-1737337011116 #MD_PARENT_START{fill:#f5f5f5!important;stroke:#333333!important;stroke-width:1;}#mermaid-1737337011116 #MD_PARENT_END{fill:#f5f5f5!important;stroke:#333333!important;stroke-width:1;}#mermaid-1737337011116 :root{--mermaid-font-family:"trebuchet ms",verdana,arial,sans-serif;}</style><g></g><defs><marker orient="auto" markerHeight="240" markerWidth="190" refY="7" refX="0" id="MD_PARENT_START"><path d="M 18,7 L9,13 L1,7 L9,1 Z"></path></marker></defs><defs><marker orient="auto" markerHeight="28" markerWidth="20" refY="7" refX="19" id="MD_PARENT_END"><path d="M 18,7 L9,13 L1,7 L9,1 Z"></path></marker></defs><defs><marker orient="auto" markerHeight="18" markerWidth="18" refY="9" refX="0" id="ONLY_ONE_START"><path d="M9,0 L9,18 M15,0 L15,18" fill="none" stroke="gray"></path></marker></defs><defs><marker orient="auto" markerHeight="18" markerWidth="18" refY="9" refX="18" id="ONLY_ONE_END"><path d="M3,0 L3,18 M9,0 L9,18" fill="none" stroke="gray"></path></marker></defs><defs><marker orient="auto" markerHeight="18" markerWidth="30" refY="9" refX="0" id="ZERO_OR_ONE_START"><circle r="6" cy="9" cx="21" fill="white" stroke="gray"></circle><path d="M9,0 L9,18" fill="none" stroke="gray"></path></marker></defs><defs><marker orient="auto" markerHeight="18" markerWidth="30" refY="9" refX="30" id="ZERO_OR_ONE_END"><circle r="6" cy="9" cx="9" fill="white" stroke="gray"></circle><path d="M21,0 L21,18" fill="none" stroke="gray"></path></marker></defs><defs><marker orient="auto" markerHeight="36" markerWidth="45" refY="18" refX="18" id="ONE_OR_MORE_START"><path d="M0,18 Q 18,0 36,18 Q 18,36 0,18 M42,9 L42,27" fill="none" stroke="gray"></path></marker></defs><defs><marker orient="auto" markerHeight="36" markerWidth="45" refY="18" refX="27" id="ONE_OR_MORE_END"><path d="M3,9 L3,27 M9,18 Q27,0 45,18 Q27,36 9,18" fill="none" stroke="gray"></path></marker></defs><defs><marker orient="auto" markerHeight="36" markerWidth="57" refY="18" refX="18" id="ZERO_OR_MORE_START"><circle r="6" cy="18" cx="48" fill="white" stroke="gray"></circle><path d="M0,18 Q18,0 36,18 Q18,36 0,18" fill="none" stroke="gray"></path></marker></defs><defs><marker orient="auto" markerHeight="36" markerWidth="57" refY="18" refX="39" id="ZERO_OR_MORE_END"><circle r="6" cy="18" cx="9" fill="white" stroke="gray"></circle><path d="M21,18 Q39,0 57,18 Q39,36 21,18" fill="none" stroke="gray"></path></marker></defs><path style="stroke: gray; fill: none;" marker-start="url(#ONLY_ONE_START)" marker-end="url(#ZERO_OR_MORE_END)" d="M103.01,318L103.01,328.167C103.01,338.333,103.01,358.667,119.672,377.167C136.335,395.667,169.66,412.333,186.322,420.667L202.984,429" class="er relationshipLine"></path><path style="stroke: gray; fill: none;" marker-start="url(#ONLY_ONE_START)" marker-end="url(#ZERO_OR_MORE_END)" d="M438.925,329L438.925,337.333C438.925,345.667,438.925,362.333,422.263,379C405.6,395.667,372.275,412.333,355.613,420.667L338.95,429" class="er relationshipLine"></path><path style="stroke: gray; fill: none;" marker-start="url(#ONLY_ONE_START)" marker-end="url(#ZERO_OR_MORE_END)" d="M103.01,95L103.01,103.333C103.01,111.667,103.01,128.333,103.01,146.833C103.01,165.333,103.01,185.667,103.01,195.833L103.01,206" class="er relationshipLine"></path><g transform="translate(20,206 )" id="entity-CAR-d58c1c43-b180-5c15-ae3f-ebb2bacf180b"><rect height="112" width="166.0191192626953" y="0" x="0" class="er entityBox"></rect><text style="dominant-baseline: middle; text-anchor: middle; font-size: 12px;" transform="translate(83.00955963134766,12)" y="0" x="0" id="text-entity-CAR-d58c1c43-b180-5c15-ae3f-ebb2bacf180b" class="er entityLabel">CAR</text><rect height="22" width="43.48431396484375" y="24" x="0" class="er attributeBoxOdd"></rect><text style="dominant-baseline: middle; font-size: 10.2px;" transform="translate(5,35)" y="0" x="0" id="text-entity-CAR-d58c1c43-b180-5c15-ae3f-ebb2bacf180b-attr-1-type" class="er entityLabel">string</text><rect height="22" width="99.84712219238281" y="24" x="43.48431396484375" class="er attributeBoxOdd"></rect><text style="dominant-baseline: middle; font-size: 10.2px;" transform="translate(48.48431396484375,35)" y="0" x="0" id="text-entity-CAR-d58c1c43-b180-5c15-ae3f-ebb2bacf180b-attr-1-name" class="er entityLabel">registrationNumber</text><rect height="22" width="22.68768310546875" y="24" x="143.33143615722656" class="er attributeBoxOdd"></rect><text style="dominant-baseline: middle; font-size: 10.2px;" transform="translate(148.33143615722656,35)" y="0" x="0" id="text-entity-CAR-d58c1c43-b180-5c15-ae3f-ebb2bacf180b-attr-1-key" class="er entityLabel">PK</text><rect height="22" width="43.48431396484375" y="46" x="0" class="er attributeBoxEven"></rect><text style="dominant-baseline: middle; font-size: 10.2px;" transform="translate(5,57)" y="0" x="0" id="text-entity-CAR-d58c1c43-b180-5c15-ae3f-ebb2bacf180b-attr-2-type" class="er entityLabel">string</text><rect height="22" width="99.84712219238281" y="46" x="43.48431396484375" class="er attributeBoxEven"></rect><text style="dominant-baseline: middle; font-size: 10.2px;" transform="translate(48.48431396484375,57)" y="0" x="0" id="text-entity-CAR-d58c1c43-b180-5c15-ae3f-ebb2bacf180b-attr-2-name" class="er entityLabel">make</text><rect height="22" width="22.68768310546875" y="46" x="143.33143615722656" class="er attributeBoxEven"></rect><text style="dominant-baseline: middle; font-size: 10.2px;" transform="translate(148.33143615722656,57)" y="0" x="0" id="text-entity-CAR-d58c1c43-b180-5c15-ae3f-ebb2bacf180b-attr-2-key" class="er entityLabel"></text><rect height="22" width="43.48431396484375" y="68" x="0" class="er attributeBoxOdd"></rect><text style="dominant-baseline: middle; font-size: 10.2px;" transform="translate(5,79)" y="0" x="0" id="text-entity-CAR-d58c1c43-b180-5c15-ae3f-ebb2bacf180b-attr-3-type" class="er entityLabel">string</text><rect height="22" width="99.84712219238281" y="68" x="43.48431396484375" class="er attributeBoxOdd"></rect><text style="dominant-baseline: middle; font-size: 10.2px;" transform="translate(48.48431396484375,79)" y="0" x="0" id="text-entity-CAR-d58c1c43-b180-5c15-ae3f-ebb2bacf180b-attr-3-name" class="er entityLabel">model</text><rect height="22" width="22.68768310546875" y="68" x="143.33143615722656" class="er attributeBoxOdd"></rect><text style="dominant-baseline: middle; font-size: 10.2px;" transform="translate(148.33143615722656,79)" y="0" x="0" id="text-entity-CAR-d58c1c43-b180-5c15-ae3f-ebb2bacf180b-attr-3-key" class="er entityLabel"></text><rect height="22" width="43.48431396484375" y="90" x="0" class="er attributeBoxEven"></rect><text style="dominant-baseline: middle; font-size: 10.2px;" transform="translate(5,101)" y="0" x="0" id="text-entity-CAR-d58c1c43-b180-5c15-ae3f-ebb2bacf180b-attr-4-type" class="er entityLabel">string[]</text><rect height="22" width="99.84712219238281" y="90" x="43.48431396484375" class="er attributeBoxEven"></rect><text style="dominant-baseline: middle; font-size: 10.2px;" transform="translate(48.48431396484375,101)" y="0" x="0" id="text-entity-CAR-d58c1c43-b180-5c15-ae3f-ebb2bacf180b-attr-4-name" class="er entityLabel">parts</text><rect height="22" width="22.68768310546875" y="90" x="143.33143615722656" class="er attributeBoxEven"></rect><text style="dominant-baseline: middle; font-size: 10.2px;" transform="translate(148.33143615722656,101)" y="0" x="0" id="text-entity-CAR-d58c1c43-b180-5c15-ae3f-ebb2bacf180b-attr-4-key" class="er entityLabel"></text></g><g transform="translate(175.93859481811523,429 )" id="entity-NAMEDDRIVER-d90e5e77-ef25-5d7a-a526-f279abbecadc"><rect height="68" width="190.0576629638672" y="0" x="0" class="er entityBox"></rect><text style="dominant-baseline: middle; text-anchor: middle; font-size: 12px;" transform="translate(95.0288314819336,12)" y="0" x="0" id="text-entity-NAMEDDRIVER-d90e5e77-ef25-5d7a-a526-f279abbecadc" class="er entityLabel">NAMED-DRIVER</text><rect height="22" width="36.61909484863281" y="24" x="0" class="er attributeBoxOdd"></rect><text style="dominant-baseline: middle; font-size: 10.2px;" transform="translate(5,35)" y="0" x="0" id="text-entity-NAMEDDRIVER-d90e5e77-ef25-5d7a-a526-f279abbecadc-attr-1-type" class="er entityLabel">string</text><rect height="22" width="115.77961730957031" y="24" x="36.61909484863281" class="er attributeBoxOdd"></rect><text style="dominant-baseline: middle; font-size: 10.2px;" transform="translate(41.61909484863281,35)" y="0" x="0" id="text-entity-NAMEDDRIVER-d90e5e77-ef25-5d7a-a526-f279abbecadc-attr-1-name" class="er entityLabel">carRegistrationNumber</text><rect height="22" width="37.65895080566406" y="24" x="152.39871215820312" class="er attributeBoxOdd"></rect><text style="dominant-baseline: middle; font-size: 10.2px;" transform="translate(157.39871215820312,35)" y="0" x="0" id="text-entity-NAMEDDRIVER-d90e5e77-ef25-5d7a-a526-f279abbecadc-attr-1-key" class="er entityLabel">PK,FK</text><rect height="22" width="36.61909484863281" y="46" x="0" class="er attributeBoxEven"></rect><text style="dominant-baseline: middle; font-size: 10.2px;" transform="translate(5,57)" y="0" x="0" id="text-entity-NAMEDDRIVER-d90e5e77-ef25-5d7a-a526-f279abbecadc-attr-2-type" class="er entityLabel">string</text><rect height="22" width="115.77961730957031" y="46" x="36.61909484863281" class="er attributeBoxEven"></rect><text style="dominant-baseline: middle; font-size: 10.2px;" transform="translate(41.61909484863281,57)" y="0" x="0" id="text-entity-NAMEDDRIVER-d90e5e77-ef25-5d7a-a526-f279abbecadc-attr-2-name" class="er entityLabel">driverLicence</text><rect height="22" width="37.65895080566406" y="46" x="152.39871215820312" class="er attributeBoxEven"></rect><text style="dominant-baseline: middle; font-size: 10.2px;" transform="translate(157.39871215820312,57)" y="0" x="0" id="text-entity-NAMEDDRIVER-d90e5e77-ef25-5d7a-a526-f279abbecadc-attr-2-key" class="er entityLabel">PK,FK</text></g><g transform="translate(286.0191192626953,195 )" id="entity-PERSON-0411f458-596b-5e40-828e-dbef3c8360ea"><rect height="134" width="305.8123474121094" y="0" x="0" class="er entityBox"></rect><text style="dominant-baseline: middle; text-anchor: middle; font-size: 12px;" transform="translate(152.9061737060547,12)" y="0" x="0" id="text-entity-PERSON-0411f458-596b-5e40-828e-dbef3c8360ea" class="er entityLabel">PERSON</text><rect height="22" width="54.182342529296875" y="24" x="0" class="er attributeBoxOdd"></rect><text style="dominant-baseline: middle; font-size: 10.2px;" transform="translate(5,35)" y="0" x="0" id="text-entity-PERSON-0411f458-596b-5e40-828e-dbef3c8360ea-attr-1-type" class="er entityLabel">string</text><rect height="22" width="75.59617614746094" y="24" x="54.182342529296875" class="er attributeBoxOdd"></rect><text style="dominant-baseline: middle; font-size: 10.2px;" transform="translate(59.182342529296875,35)" y="0" x="0" id="text-entity-PERSON-0411f458-596b-5e40-828e-dbef3c8360ea-attr-1-name" class="er entityLabel">driversLicense</text><rect height="22" width="23.614059448242188" y="24" x="129.7785186767578" class="er attributeBoxOdd"></rect><text style="dominant-baseline: middle; font-size: 10.2px;" transform="translate(134.7785186767578,35)" y="0" x="0" id="text-entity-PERSON-0411f458-596b-5e40-828e-dbef3c8360ea-attr-1-key" class="er entityLabel">PK</text><rect height="22" width="152.41976928710938" y="24" x="153.392578125" class="er attributeBoxOdd"></rect><text style="dominant-baseline: middle; font-size: 10.2px;" transform="translate(158.392578125,35)" y="0" x="0" id="text-entity-PERSON-0411f458-596b-5e40-828e-dbef3c8360ea-attr-1-comment" class="er entityLabel">The license #</text><rect height="22" width="54.182342529296875" y="46" x="0" class="er attributeBoxEven"></rect><text style="dominant-baseline: middle; font-size: 10.2px;" transform="translate(5,57)" y="0" x="0" id="text-entity-PERSON-0411f458-596b-5e40-828e-dbef3c8360ea-attr-2-type" class="er entityLabel">string(99)</text><rect height="22" width="75.59617614746094" y="46" x="54.182342529296875" class="er attributeBoxEven"></rect><text style="dominant-baseline: middle; font-size: 10.2px;" transform="translate(59.182342529296875,57)" y="0" x="0" id="text-entity-PERSON-0411f458-596b-5e40-828e-dbef3c8360ea-attr-2-name" class="er entityLabel">firstName</text><rect height="22" width="23.614059448242188" y="46" x="129.7785186767578" class="er attributeBoxEven"></rect><text style="dominant-baseline: middle; font-size: 10.2px;" transform="translate(134.7785186767578,57)" y="0" x="0" id="text-entity-PERSON-0411f458-596b-5e40-828e-dbef3c8360ea-attr-2-key" class="er entityLabel"></text><rect height="22" width="152.41976928710938" y="46" x="153.392578125" class="er attributeBoxEven"></rect><text style="dominant-baseline: middle; font-size: 10.2px;" transform="translate(158.392578125,57)" y="0" x="0" id="text-entity-PERSON-0411f458-596b-5e40-828e-dbef3c8360ea-attr-2-comment" class="er entityLabel">Only 99 characters are allowed</text><rect height="22" width="54.182342529296875" y="68" x="0" class="er attributeBoxOdd"></rect><text style="dominant-baseline: middle; font-size: 10.2px;" transform="translate(5,79)" y="0" x="0" id="text-entity-PERSON-0411f458-596b-5e40-828e-dbef3c8360ea-attr-3-type" class="er entityLabel">string</text><rect height="22" width="75.59617614746094" y="68" x="54.182342529296875" class="er attributeBoxOdd"></rect><text style="dominant-baseline: middle; font-size: 10.2px;" transform="translate(59.182342529296875,79)" y="0" x="0" id="text-entity-PERSON-0411f458-596b-5e40-828e-dbef3c8360ea-attr-3-name" class="er entityLabel">lastName</text><rect height="22" width="23.614059448242188" y="68" x="129.7785186767578" class="er attributeBoxOdd"></rect><text style="dominant-baseline: middle; font-size: 10.2px;" transform="translate(134.7785186767578,79)" y="0" x="0" id="text-entity-PERSON-0411f458-596b-5e40-828e-dbef3c8360ea-attr-3-key" class="er entityLabel"></text><rect height="22" width="152.41976928710938" y="68" x="153.392578125" class="er attributeBoxOdd"></rect><text style="dominant-baseline: middle; font-size: 10.2px;" transform="translate(158.392578125,79)" y="0" x="0" id="text-entity-PERSON-0411f458-596b-5e40-828e-dbef3c8360ea-attr-3-comment" class="er entityLabel"></text><rect height="22" width="54.182342529296875" y="90" x="0" class="er attributeBoxEven"></rect><text style="dominant-baseline: middle; font-size: 10.2px;" transform="translate(5,101)" y="0" x="0" id="text-entity-PERSON-0411f458-596b-5e40-828e-dbef3c8360ea-attr-4-type" class="er entityLabel">string</text><rect height="22" width="75.59617614746094" y="90" x="54.182342529296875" class="er attributeBoxEven"></rect><text style="dominant-baseline: middle; font-size: 10.2px;" transform="translate(59.182342529296875,101)" y="0" x="0" id="text-entity-PERSON-0411f458-596b-5e40-828e-dbef3c8360ea-attr-4-name" class="er entityLabel">phone</text><rect height="22" width="23.614059448242188" y="90" x="129.7785186767578" class="er attributeBoxEven"></rect><text style="dominant-baseline: middle; font-size: 10.2px;" transform="translate(134.7785186767578,101)" y="0" x="0" id="text-entity-PERSON-0411f458-596b-5e40-828e-dbef3c8360ea-attr-4-key" class="er entityLabel">UK</text><rect height="22" width="152.41976928710938" y="90" x="153.392578125" class="er attributeBoxEven"></rect><text style="dominant-baseline: middle; font-size: 10.2px;" transform="translate(158.392578125,101)" y="0" x="0" id="text-entity-PERSON-0411f458-596b-5e40-828e-dbef3c8360ea-attr-4-comment" class="er entityLabel"></text><rect height="22" width="54.182342529296875" y="112" x="0" class="er attributeBoxOdd"></rect><text style="dominant-baseline: middle; font-size: 10.2px;" transform="translate(5,123)" y="0" x="0" id="text-entity-PERSON-0411f458-596b-5e40-828e-dbef3c8360ea-attr-5-type" class="er entityLabel">int</text><rect height="22" width="75.59617614746094" y="112" x="54.182342529296875" class="er attributeBoxOdd"></rect><text style="dominant-baseline: middle; font-size: 10.2px;" transform="translate(59.182342529296875,123)" y="0" x="0" id="text-entity-PERSON-0411f458-596b-5e40-828e-dbef3c8360ea-attr-5-name" class="er entityLabel">age</text><rect height="22" width="23.614059448242188" y="112" x="129.7785186767578" class="er attributeBoxOdd"></rect><text style="dominant-baseline: middle; font-size: 10.2px;" transform="translate(134.7785186767578,123)" y="0" x="0" id="text-entity-PERSON-0411f458-596b-5e40-828e-dbef3c8360ea-attr-5-key" class="er entityLabel"></text><rect height="22" width="152.41976928710938" y="112" x="153.392578125" class="er attributeBoxOdd"></rect><text style="dominant-baseline: middle; font-size: 10.2px;" transform="translate(158.392578125,123)" y="0" x="0" id="text-entity-PERSON-0411f458-596b-5e40-828e-dbef3c8360ea-attr-5-comment" class="er entityLabel"></text></g><g transform="translate(44.272254943847656,20 )" id="entity-MANUFACTURER-b521c772-71bb-5784-88b6-f712b9a9b3d9"><rect height="75" width="117.474609375" y="0" x="0" class="er entityBox"></rect><text style="dominant-baseline: middle; text-anchor: middle; font-size: 12px;" transform="translate(58.7373046875,37.5)" y="0" x="0" id="text-entity-MANUFACTURER-b521c772-71bb-5784-88b6-f712b9a9b3d9" class="er entityLabel">MANUFACTURER</text></g><rect height="14" width="33.751953125" y="382.0443115234375" x="115.86204528808594" class="er relationshipLabelBox"></rect><text style="text-anchor: middle; dominant-baseline: middle; font-size: 12px;" y="389.0443115234375" x="132.73802185058594" id="rel1" class="er relationshipLabel">allows</text><rect height="14" width="8.421875" y="385.470947265625" x="401.37158203125" class="er relationshipLabelBox"></rect><text style="text-anchor: middle; dominant-baseline: middle; font-size: 12px;" y="392.470947265625" x="405.58251953125" id="rel2" class="er relationshipLabel">is</text><rect height="14" width="33.86328125" y="143.5" x="86.07836151123047" class="er relationshipLabelBox"></rect><text style="text-anchor: middle; dominant-baseline: middle; font-size: 12px;" y="150.5" x="103.01000213623047" id="rel3" class="er relationshipLabel">makes</text></svg>